<svg height="464pt" viewBox="0 0 464.89779 464" width="464pt" xmlns="http://www.w3.org/2000/svg"><path d="m352 176.402344c.085938 41.164062-14.332031 81.046875-40.71875 112.640625-6.894531 8.171875-14.46875 15.746093-22.640625 22.640625-63.359375 52.773437-154.867187 54.480468-220.152344 4.109375-65.289062-50.371094-86.847656-139.320313-51.871093-213.992188 34.972656-74.675781 117.105468-115.058593 197.597656-97.152343 80.492187 17.90625 137.761718 89.292968 137.785156 171.753906zm0 0" fill="#ff9811"/><path d="m320 176.402344c0 79.53125-64.472656 144-144 144s-144-64.46875-144-144c0-79.527344 64.472656-144 144-144s144 64.472656 144 144zm0 0" fill="#ffd422"/><path d="m203.601562 195.683594-27.601562 20.71875-27.601562-20.71875 11.601562-3.28125v-20.320313c9.890625 5.761719 22.109375 5.761719 32 0v20.320313zm0 0" fill="#ffdaaa"/><path d="m208 128.402344v16c-.015625 8.484375-3.378906 16.621094-9.359375 22.640625-1.996094 1.949219-4.226563 3.640625-6.640625 5.039062-9.894531 5.714844-22.085938 5.71875-31.984375.007813-9.898437-5.707032-16.003906-16.261719-16.015625-27.6875v-16h9.441406c9.484375.019531 18.761719-2.796875 26.636719-8.078125l11.921875-7.921875 3.601562 7.121094c2.355469 4.847656 7.039063 8.140624 12.398438 8.71875zm0 0" fill="#ffdaaa"/><path d="m216 272.402344h-112v-39.839844c-.015625-14.296875 9.453125-26.867188 23.199219-30.800781l21.199219-6.078125 27.601562 20.71875 27.601562-20.71875 21.199219 6.078125c13.746094 3.933593 23.214844 16.503906 23.199219 30.800781v39.839844zm0 0" fill="#3d9ae2"/><path d="m176 80.402344c22.089844 0 40 17.910156 40 40v8h-6.078125c-.644531.027344-1.289063-.027344-1.921875-.160156-5.359375-.578126-10.042969-3.871094-12.398438-8.71875l-3.601562-7.121094-11.921875 7.921875c-7.875 5.28125-17.152344 8.097656-26.636719 8.078125h-17.441406v-8c0-22.089844 17.910156-40 40-40zm0 0" fill="#3e3d42"/><path d="m455.519531 410.644531c12.503907 12.503907 12.503907 32.773438 0 45.277344-12.503906 12.503906-32.777343 12.503906-45.28125 0l-90.476562-90.480469 45.277343-45.277344zm0 0" fill="#787680"/><path d="m353.679688 331.441406-22.640626 22.640625-42.398437-42.398437c8.171875-6.894532 15.746094-14.46875 22.640625-22.640625zm0 0" fill="#ee8700"/><path d="m192 172.082031v8c-9.890625 5.761719-22.109375 5.761719-32 0v-8c9.890625 5.761719 22.109375 5.761719 32 0zm0 0" fill="#f2cd9d"/><g fill="#1e81ce"><path d="m128 232.402344h16v40h-16zm0 0"/><path d="m208 232.402344h16v40h-16zm0 0"/></g></svg>