<svg id="Capa_1" enable-background="new 0 0 512 512" height="512" viewBox="0 0 512 512" width="512" xmlns="http://www.w3.org/2000/svg"><g><path d="m451 406c0-41.355-33.645-75-75-75h-240c-41.355 0-75 33.645-75 75v106h390zm-360 0c0-24.813 20.187-45 45-45h100.458l-35.42 23.613c-12.547 8.366-20.038 22.363-20.038 37.442v59.945h-90zm330 76h-210v-59.945c0-5.027 2.497-9.692 6.679-12.481l72.862-48.574h85.459c24.813 0 45 20.187 45 45z"/><path d="m241 421h30v30h-30z"/><path d="m361 226c0-10.042 0-83.04 0-95.013 18.933-14.114 30-34.52 30-55.987 0-44.254-43.443-75-90-75-16.031 0-31.469 3.469-45.008 9.97-13.617-6.543-29-9.97-44.992-9.97-46.783 0-90 30.928-90 75 0 21.467 11.067 41.873 30 55.987v95.013c0 57.897 47.103 105 105 105s105-47.103 105-105zm-150-196c5.621 0 11.112.577 16.375 1.706-10.648 12.53-16.375 27.488-16.375 43.294h30c0-24.813 26.916-45 60-45s60 20.187 60 45c0 25.887-27.756 37.584-30 39.518v35.482h-150v-35.482c-2.238-1.93-30-13.288-30-39.518 0-24.813 26.916-45 60-45zm45 271c-41.355 0-75-33.645-75-75v-46.01h150v46.01c0 41.355-33.645 75-75 75z"/></g></svg>