<svg id="Capa_1" enable-background="new 0 0 512 512" height="512" viewBox="0 0 512 512" width="512" xmlns="http://www.w3.org/2000/svg"><g><path d="m437 301c-3.267 0-6.478.233-9.636.64l-21.242-60.64h44.878v-90h-45c-10.424 0-20.023 3.572-27.66 9.543l-13.331-39.074c-6.218-18.224-23.333-30.469-42.589-30.469h-66.42v30h66.42c6.419 0 12.123 4.082 14.196 10.156l7.249 21.247c-4.147-.909-8.448-1.403-12.865-1.403-5.716 0-11.377.806-16.825 2.395 0 0-80.647 23.526-94.631 27.605h-69.544v-120h-150v150h31.509c6.968 34.192 37.271 60 73.491 60h23.787l30.236 30.236c-14.552 1.153-27.945 6.481-38.986 14.778-12.906-9.743-28.529-15.014-45.037-15.014-41.355 0-75 33.645-75 75s33.645 75 75 75c36.219 0 66.522-25.808 73.491-60h107.509c41.355 0 75-33.645 75-75v-45c18.573 0 35.201-8.484 46.215-21.779l21.775 62.163c-22.115 13.058-36.99 37.126-36.99 64.616 0 41.355 33.645 75 75 75s75-33.645 75-75-33.645-75-75-75zm-362 120c-24.813 0-45-20.187-45-45s20.187-45 45-45c9.067 0 17.687 2.654 25.021 7.586-6.369 11.02-10.021 23.797-10.021 37.414v14.99h27.42c-6.192 17.468-22.865 30.01-42.42 30.01zm-45-240v-90h30v30h30v-30h30v90zm75 60c-19.556 0-36.239-12.539-42.43-30h148.43v30zm17.57 120c6.191-17.461 22.874-30 42.43-30h23.859l30.5 30zm178.43-45c0 22.863-17.142 41.784-39.246 44.619-.174-.173-90.393-89.473-90.54-89.619h129.786zm30-75h-90v-35.009l81.575-23.796c2.718-.793 5.553-1.195 8.425-1.195 16.542 0 30 13.458 30 30s-13.458 30-30 30zm60-45c0-8.271 6.729-15 15-15h15v30h-15c-8.271 0-15-6.729-15-15zm46 225c-24.813 0-45-20.187-45-45s20.187-45 45-45 45 20.187 45 45-20.187 45-45 45z"/></g></svg>