<?xml version="1.0"?>
<svg xmlns="http://www.w3.org/2000/svg" id="Outline" viewBox="0 0 512 512" width="512" height="512"><path d="M488,80H344a8,8,0,0,0-8,8V210.234L294.7,224H264a40.175,40.175,0,0,0-32,16l-14.4,19.2a8,8,0,0,0,.743,10.457l34.937,34.937L228.155,336H189.731a163.062,163.062,0,0,1-6.755-41.873c-1.121-36.33,9.423-69.038,31.339-97.215l-.006,0A7.954,7.954,0,0,0,216,192V152a8,8,0,0,0-8-8H184V128h24a8,8,0,0,0,8-8V88a8,8,0,0,0-8-8H192a24.027,24.027,0,0,0-24,24v40.805A40.067,40.067,0,0,0,136,184v8a7.976,7.976,0,0,0,2.344,5.658c-23.281,11.6-52.6,32.078-71.287,66.539C40.177,266.246,16,284.622,16,304a8,8,0,0,0,8,8H34.338a72,72,0,1,0,121.89,71.042A7.986,7.986,0,0,0,160,384H340.094a72,72,0,1,0,88.265-93.027l13.99-10.7,25.683,14.671a8,8,0,1,0,7.936-13.892l-25.992-14.848L462.034,224H488a8,8,0,0,0,8-8V88A8,8,0,0,0,488,80ZM352,160h16v48H352Zm32,48V160h64v48Zm-32-64V119.978A39.788,39.788,0,0,0,376,128h80a39.788,39.788,0,0,0,24-8.022V144Zm104-32H376a24.038,24.038,0,0,1-22.624-16H478.624A24.038,24.038,0,0,1,456,112ZM264,240h32a8,8,0,0,0,2.53-.411L345.3,224h37.161l-80,32H240l4.8-6.4A24.1,24.1,0,0,1,264,240Zm-64-56H184V160h16Zm-16-80a8.009,8.009,0,0,1,8-8h8v16H184Zm-16,57.376V184H152A24.038,24.038,0,0,1,168,161.376ZM68.416,280.149,81.828,296H35.221C41.079,288.351,54.2,281.208,68.416,280.149ZM88,416A56.007,56.007,0,0,1,59.137,312h36.23l13.438,15.882L98.341,338.345a24.008,24.008,0,1,0,11.314,11.314l9.521-9.521,24.145,28.536A55.718,55.718,0,0,1,88,416Zm8-56a8,8,0,1,1-8-8A8.009,8.009,0,0,1,96,360Zm205.292,8H163.711L81.592,270.951c29.119-52.586,87.965-69.063,95.37-70.951h15.626c-22.359,35.069-26.436,70.539-25.583,95.276,1.036,30.052,9.219,50.826,9.567,51.695A8,8,0,0,0,184,352h48a8,8,0,0,0,6.247-3l32-40a8,8,0,0,0-.59-10.655L243.314,272H304a8,8,0,0,0,2.971-.572L416,227.816V232a24.038,24.038,0,0,0,20.331,23.72l-3.3,11.535Zm47.266-16H408a8,8,0,1,1,0,16H327.633Zm20.92-16,12.716-9.724L387.056,336ZM464,360a56.012,56.012,0,0,1-106.616,24H408a24,24,0,0,0,0-48h-3.056l-9.81-19.62L411.192,304.1A56.166,56.166,0,0,1,464,360ZM440.823,240H440a8.009,8.009,0,0,1-8-8v-8h13.394ZM464,208V160h16v48Z"/></svg>
