<svg enable-background="new 0 0 24 24" height="512" viewBox="0 0 24 24" width="512" xmlns="http://www.w3.org/2000/svg"><path d="m9.993 20v-10.27l-9.993-4.865v5.544 4.186z" fill="#ffcc80"/><path d="m20 4.86v5.14h-.03c-.8 0-1.55.34-2.069.94-.49.56-.73 1.27-.681 2 .03.32.11.63.24.91-1.69.91-3.03 2.381-3.79 4.17l-3.66 1.98v-10.27z" fill="#ffb74d"/><path d="m20 4.86-9.99 4.87-3.89-1.89-1.62-.79-4.5-2.19 9.99-4.86 4.26 2.07 1.7.82z" fill="#ffa726"/><path d="m15.731 2.796-9.882 4.924v4.974l-1.567-.798v-4.94l9.75-4.98z" fill="#795548"/><path d="m0 4.865v5.544 4.186l9.993 5.405v-10.27l-4.136-2.014-.008.004v4.974l-1.567-.798v-4.94l.007-.003z" fill="#deb26f"/><path d="m10 5.652-4.138 2.062.258.126 3.88 1.885zm-.01-5.652-9.99 4.86 4.295 2.09 5.705-2.914v-4.031z" fill="#de9121"/><path d="m10 4.036-5.705 2.914-.006.003-.007.003v4.94l1.567.798v-4.974l.008-.004.005-.002 4.138-2.062z" fill="#694a3f"/><path d="m23.888 15.984.047-.069c.041-.093.065-.194.065-.301s-.024-.208-.065-.301l-.047-.069-.13-.175-.015-.02-3.281-2.864c-.314-.272-.786-.241-1.059.072-.272.312-.24.786.072 1.058l1.781 1.555c-3.46.065-6.256 2.94-6.256 6.471v1.909c0 .414.336.75.75.75s.75-.336.75-.75v-1.909c0-2.694 2.111-4.884 4.733-4.962l-1.758 1.534c-.313.272-.345.746-.072 1.058.148.17.356.257.565.257.175 0 .351-.061.493-.185l3.281-2.863.015-.02z" fill="#4caf50"/><path d="m17.5 16.204c-1.519 1.184-2.5 3.045-2.5 5.136v1.909c0 .414.336.75.75.75s.75-.336.75-.75v-1.909c0-1.132.373-2.176 1-3.01z" fill="#429846"/></svg>