<svg id="Flat" height="512" viewBox="0 0 512 512" width="512" xmlns="http://www.w3.org/2000/svg"><path d="m336 488v-416h56l40 160v256z" fill="#93573d"/><path d="m352 488h-272v-252.061a32.033 32.033 0 0 1 .955-7.761l39.045-156.178h272l-39.045 156.178a32.033 32.033 0 0 0 -.955 7.761z" fill="#ab6647"/><path d="m392 464a8 8 0 0 1 -8-8v-200a8 8 0 0 1 16 0v200a8 8 0 0 1 -8 8z" fill="#794832"/><path d="m208 232a8 8 0 0 0 -8 8v24h-16v-24a8 8 0 0 0 -16 0v24h-16v-24a8 8 0 0 0 -16 0v24l24 32h32l24-32v-24a8 8 0 0 0 -8-8z" fill="#d9dbdd"/><path d="m182.816 440h-13.632a16 16 0 0 1 -15.96-17.14l6.776-126.86h32l6.776 126.86a16 16 0 0 1 -15.96 17.14z" fill="#e74444"/><path d="m248 328v-8l-16-8s6-80 48-80v96z" fill="#d9dbdd"/><path d="m270.32 440h-12.64a16 16 0 0 1 -15.921-17.592l6.241-94.408h32l6.241 94.408a16 16 0 0 1 -15.921 17.592z" fill="#e74444"/><path d="m104 24c-8.837 0-16 14.327-16 32s7.163 32 16 32h288v-64z" fill="#93573d"/><ellipse cx="392" cy="56" fill="#ab6647" rx="16" ry="32"/><path d="m352 488 40-40 40 40z" fill="#794832"/></svg>