<svg height="512" viewBox="0 0 512 512" width="512" xmlns="http://www.w3.org/2000/svg"><g id="filled_outline" data-name="filled outline"><path d="m56 168h400v320h-400z" fill="#ea9d2d"/><path d="m488 168h-464l20.785-76.21a16 16 0 0 1 15.436-11.79h391.558a16 16 0 0 1 15.436 11.79z" fill="#ebebeb"/><g fill="#c7463b"><path d="m184 80-16 88h56l8-88z"/><path d="m72 168 16-88h48l-16 88z"/><path d="m344 168-16-88h-48l8 88z"/><path d="m424 80 16 88h-48l-16-88z"/></g><path d="m166 24h180a6 6 0 0 1 6 6v50a0 0 0 0 1 0 0h-192a0 0 0 0 1 0 0v-50a6 6 0 0 1 6-6z" fill="#dc4d41"/><path d="m88 216h208v184h-208z" fill="#c3c3c3"/><path d="m88 216h200v176h-200z" fill="#d9d9d9"/><path d="m155 400h74a11 11 0 0 1 11 11v45a0 0 0 0 1 0 0h-96a0 0 0 0 1 0 0v-45a11 11 0 0 1 11-11z" fill="#dc4d41"/><path d="m176 456h32v32h-32z" fill="#bd9070"/><path d="m176 456h32v16h-32z" fill="#b08668"/><path d="m232 456h16v32h-16z" fill="#744630"/><path d="m272 376a8 8 0 0 0 -8 8v56h-24v16h24v32h16v-104a8 8 0 0 0 -8-8z" fill="#744630"/><path d="m120 384a8 8 0 0 0 -16 0v104h16v-32h24v-16h-24z" fill="#744630"/><path d="m136 456h16v32h-16z" fill="#744630"/><path d="m168 432h16v24h-16z" fill="#c7463b"/><path d="m200 432h16v24h-16z" fill="#c7463b"/><path d="m328 440h96v48h-96z" fill="#ebebeb"/><path d="m328 280h96v160h-96z" fill="#b94137"/><path d="m328 288h88v152h-88z" fill="#c7463b"/><path d="m328 464h96v24h-96z" fill="#dbdbdb"/><path d="m328 200h96v48h-96z" fill="#ebebeb"/><path d="m170 248h44a26 26 0 0 1 26 26v6a0 0 0 0 1 0 0h-96a0 0 0 0 1 0 0v-6a26 26 0 0 1 26-26z" fill="#70400e"/><path d="m170 336h44a26 26 0 0 1 26 26v6a0 0 0 0 1 0 0h-96a0 0 0 0 1 0 0v-6a26 26 0 0 1 26-26z" fill="#70400e" transform="matrix(-1 0 0 -1 384 704)"/><path d="m239.994 320a7.973 7.973 0 0 1 -3.572-.847l-12.422-6.209-12.422 6.211a8 8 0 0 1 -7.156 0l-12.422-6.211-12.422 6.211a8 8 0 0 1 -7.156 0l-12.422-6.211-12.422 6.211a8 8 0 0 1 -7.156-14.31l16-8a8 8 0 0 1 7.156 0l12.422 6.211 12.422-6.211a8 8 0 0 1 7.156 0l12.422 6.211 12.422-6.211a8 8 0 0 1 7.156 0l16 8a8 8 0 0 1 -3.584 15.155z" fill="#ea9d2d"/><path d="m360 376a8 8 0 0 1 -8-8v-16a8 8 0 0 1 8-8h16a8 8 0 0 1 0 16h-8v8a8 8 0 0 1 -8 8z" fill="#bd9070"/><path d="m136 456h16v16h-16z" fill="#5b3726"/><path d="m104 456h16v16h-16z" fill="#5b3726"/><path d="m264 456h16v16h-16z" fill="#5b3726"/><path d="m232 456h16v16h-16z" fill="#5b3726"/><path d="m160 64h192v16h-192z" fill="#b94137"/><path d="m56 168h400v16h-400z" fill="#c38325"/><path d="m144 336h96v8h-96z" fill="#5b3726"/><path d="m144 272h96v8h-96z" fill="#5b3726"/><path d="m328 248h96v8h-96z" fill="#c38325"/><path d="m56 496h400a8 8 0 0 0 8-8v-312h24a8 8 0 0 0 7.718-10.1l-20.784-76.21a24.053 24.053 0 0 0 -23.155-17.69h-91.779v-42a14.015 14.015 0 0 0 -14-14h-180a14.015 14.015 0 0 0 -14 14v42h-91.779a24.053 24.053 0 0 0 -23.155 17.686l-20.784 76.214a8 8 0 0 0 7.718 10.1h24v312a8 8 0 0 0 8 8zm80-16h-16v-24h16zm0-69v29h-16v-32h16.26a19.023 19.023 0 0 0 -.26 3zm32 69h-16v-16h16zm32 0h-16v-16h16zm32 0h-16v-16h16zm0-32h-16v-16h-16v16h-16v-16h-16v16h-16v-37a3 3 0 0 1 3-3h74a3 3 0 0 1 3 3zm32 32h-16v-24h16zm0-40h-16v-29a19.023 19.023 0 0 0 -.26-3h16.26zm8-64a8 8 0 0 0 -8 8v8h-144v-8a8 8 0 0 0 -16 0v8h-8v-168h192v168h-8v-8a8 8 0 0 0 -8-8zm144 104h-80v-8h80zm0-24h-80v-8h80zm0-24h-80v-144h80zm32 48h-16v-200a8 8 0 0 0 -8-8h-96a8 8 0 0 0 -8 8v200h-40v-72h16a8 8 0 0 0 8-8v-184a8 8 0 0 0 -8-8h-208a8 8 0 0 0 -8 8v184a8 8 0 0 0 8 8h16v72h-40v-304h384zm-270.414-320 13.091-72h32.563l-6.54 72zm55.175 0 6.545-72h33.388l6.545 72zm56-72h32.563l13.091 72h-39.11zm163.019 0a8.019 8.019 0 0 1 7.72 5.9l18.026 66.1h-30.849l-13.091-72zm-34.456 0 13.091 72h-31.738l-13.091-72zm-48 0 13.091 72h-31.738l-13.091-72zm-201.324-56h176v40h-176zm-25.323 56h31.737l-13.091 72h-31.737zm-48 0h31.737l-13.091 72h-31.737zm-60.2 72 18.023-66.1a8.019 8.019 0 0 1 7.721-5.9h18.193l-13.091 72z"/><path d="m328 256h96a8 8 0 0 0 8-8v-48a8 8 0 0 0 -8-8h-96a8 8 0 0 0 -8 8v48a8 8 0 0 0 8 8zm8-48h80v32h-80z"/><path d="m214 240h-44a34.038 34.038 0 0 0 -34 34v6a8 8 0 0 0 8 8h96a8 8 0 0 0 8-8v-6a34.038 34.038 0 0 0 -34-34zm-61.89 32a18.027 18.027 0 0 1 17.89-16h44a18.027 18.027 0 0 1 17.89 16z"/><path d="m240 328h-96a8 8 0 0 0 -8 8v6a34.038 34.038 0 0 0 34 34h44a34.038 34.038 0 0 0 34-34v-6a8 8 0 0 0 -8-8zm-26 32h-44a18.027 18.027 0 0 1 -17.89-16h79.78a18.027 18.027 0 0 1 -17.89 16z"/><path d="m147.578 319.155 12.422-6.211 12.422 6.211a8 8 0 0 0 7.156 0l12.422-6.211 12.422 6.211a8 8 0 0 0 7.156 0l12.422-6.211 12.422 6.211a8 8 0 0 0 7.156-14.31l-16-8a8 8 0 0 0 -7.156 0l-12.422 6.211-12.422-6.211a8 8 0 0 0 -7.156 0l-12.422 6.211-12.422-6.211a8 8 0 0 0 -7.156 0l-16 8a8 8 0 0 0 7.156 14.31z"/><path d="m360 376a8 8 0 0 0 8-8v-8h8a8 8 0 0 0 0-16h-16a8 8 0 0 0 -8 8v16a8 8 0 0 0 8 8z"/></g></svg>