<svg id="Capa_1" enable-background="new 0 0 510 510" height="512" viewBox="0 0 510 510" width="512" xmlns="http://www.w3.org/2000/svg"><g><path d="m440.16 122.5h20.417c16.224 0 29.423-13.199 29.423-29.423v-31.154c0-16.224-13.199-29.423-29.423-29.423h-120.577v30h-60v30h60v26.913l33.722 130.07-16.442 23.017h-72.28v-90.593c0-24.486-19.921-44.407-44.407-44.407h-60.593v-105h-180v205h70.74l-40.74 44.135v95.865c0 55.14 44.86 100 100 100s100-44.86 100-100l80 .023c.012 55.13 44.867 99.977 100 99.977 55.105 0 99.941-44.803 99.999-99.895h.001v-.105-22.202zm36.207 225.091-56.418-.023 40.294-53.725zm-16.367-255.091h-28.84-1.16v-30h30zm-90-30h30v30h-30zm-129.407 105c7.944 0 14.407 6.463 14.407 14.407v25.593h-75v-40zm-90.593-105v75h-120v-75zm-120 145v-40h120v40zm170 140h-140v-40h101.324c21.326 0 38.676 17.35 38.676 38.676zm-70 100c-38.598 0-70-31.402-70-70h140c0 38.598-31.402 70-70 70zm100-100v-1.324c0-37.868-30.808-68.676-68.676-68.676h-86.68l36.923-40h143.433v65h117.72l33.559-46.982-34.487-133.018h37.048l40.689 135.629-67.068 89.424zm180 100c-38.586 0-69.98-31.383-69.999-69.965l139.997.058c-.051 38.555-31.432 69.907-69.998 69.907z"/></g></svg>